<svg width="40" height="41" viewBox="0 0 40 41" fill="none" xmlns="http://www.w3.org/2000/svg">
<path d="M33.9659 5.8856C30.6345 2.52095 26.2104 0.45752 21.4916 0.0675052C16.7728 -0.322509 12.07 0.986566 8.23135 3.75861C4.39273 6.53065 1.67105 10.5832 0.557227 15.1852C-0.556596 19.7872 0.0107666 24.6358 2.15697 28.8563L0.0502033 39.0845C0.0283433 39.1863 0.0277241 39.2915 0.048385 39.3936C0.0690458 39.4956 0.110542 39.5923 0.170278 39.6776C0.257787 39.807 0.382701 39.9067 0.528338 39.9632C0.673975 40.0198 0.833404 40.0306 0.985332 39.9942L11.0098 37.6181C15.2184 39.71 20.0328 40.2409 24.5961 39.1163C29.1595 37.9917 33.1759 35.2846 35.9306 31.4767C38.6854 27.6688 39.9998 23.0071 39.64 18.321C39.2803 13.6349 37.2697 9.22839 33.9659 5.8856ZM30.8403 30.8321C28.5353 33.1306 25.5672 34.6479 22.3542 35.1701C19.1412 35.6923 15.8453 35.1932 12.931 33.743L11.5337 33.0517L5.38808 34.5071L5.40628 34.4307L6.6798 28.245L5.99573 26.8951C4.50666 23.9706 3.98137 20.6499 4.49511 17.4086C5.00885 14.1673 6.53527 11.1718 8.8557 8.85109C11.7714 5.93633 15.7253 4.29892 19.848 4.29892C23.9707 4.29892 27.9247 5.93633 30.8403 8.85109C30.8652 8.87956 30.8919 8.90631 30.9204 8.93114C33.7999 11.8534 35.4074 15.7955 35.3924 19.8981C35.3774 24.0007 33.7411 27.9309 30.8403 30.8321Z" fill="white"/>
<path d="M30.4474 26.2947C29.6942 27.4809 28.5043 28.9327 27.0088 29.293C24.389 29.9261 20.3683 29.3148 15.3652 24.6501L15.3034 24.5955C10.9042 20.5166 9.76171 17.1217 10.0382 14.4291C10.1911 12.9009 11.4646 11.5182 12.538 10.6159C12.7077 10.471 12.9089 10.3679 13.1256 10.3147C13.3423 10.2616 13.5684 10.2599 13.7859 10.3097C14.0033 10.3596 14.2061 10.4596 14.378 10.6019C14.5499 10.7441 14.6861 10.9246 14.7758 11.1289L16.3949 14.7675C16.5002 15.0035 16.5392 15.2636 16.5077 15.52C16.4763 15.7764 16.3757 16.0194 16.2167 16.223L15.398 17.2855C15.2223 17.5049 15.1163 17.7718 15.0936 18.0519C15.0709 18.332 15.1325 18.6126 15.2706 18.8574C15.7291 19.6615 16.8279 20.8441 18.0469 21.9393C19.415 23.1764 20.9323 24.308 21.8929 24.6937C22.15 24.7987 22.4326 24.8244 22.7043 24.7673C22.976 24.7102 23.2244 24.5731 23.4175 24.3735L24.3672 23.4166C24.5504 23.2359 24.7783 23.107 25.0276 23.0431C25.2769 22.9792 25.5387 22.9825 25.7863 23.0527L29.6323 24.1443C29.8445 24.2094 30.0389 24.3221 30.2008 24.4739C30.3627 24.6256 30.4878 24.8124 30.5664 25.0199C30.6451 25.2274 30.6752 25.4502 30.6546 25.6711C30.634 25.8921 30.5631 26.1054 30.4474 26.2947Z" fill="white"/>
</svg>
